<svg xmlns="http://www.w3.org/2000/svg" viewBox="0 0 200 200" width="200" height="200">
  <!-- Background circle -->
  <circle cx="100" cy="100" r="100" fill="#f5f5f4"/>
  
  <!-- Face -->
  <circle cx="100" cy="85" r="45" fill="#e7e5e4"/>
  
  <!-- Hair -->
  <path d="M55 75 Q55 30 100 30 Q145 30 145 75 Q145 55 100 50 Q55 55 55 75" fill="#44403c"/>
  <path d="M55 75 Q50 60 60 50 Q70 40 85 35" fill="#44403c"/>
  <path d="M145 75 Q150 60 140 50 Q130 40 115 35" fill="#44403c"/>
  
  <!-- Eyes -->
  <ellipse cx="82" cy="85" rx="5" ry="6" fill="#1c1917"/>
  <ellipse cx="118" cy="85" rx="5" ry="6" fill="#1c1917"/>
  
  <!-- Eyebrows -->
  <path d="M75 75 Q82 72 89 75" stroke="#44403c" stroke-width="2" fill="none"/>
  <path d="M111 75 Q118 72 125 75" stroke="#44403c" stroke-width="2" fill="none"/>
  
  <!-- Nose -->
  <path d="M100 90 L97 102 L103 102" fill="#d6d3d1"/>
  
  <!-- Mouth -->
  <path d="M88 112 Q100 118 112 112" stroke="#a8a29e" stroke-width="2" fill="none" stroke-linecap="round"/>
  
  <!-- Neck -->
  <rect x="85" y="125" width="30" height="20" fill="#e7e5e4"/>
  
  <!-- Shirt/Collar -->
  <path d="M55 145 Q100 135 145 145 L145 200 L55 200 Z" fill="#44403c"/>
  <path d="M85 145 L100 165 L115 145" fill="#fafaf9"/>
</svg>
